<?xml version="1.0" encoding="UTF-8"?>
<svg xmlns="http://www.w3.org/2000/svg" width="750" height="472" viewBox="0 0 750 472">
<rect width="100%" height="100%" fill="#cbd0ee"/>
<style>
  .s { fill: none; stroke: #253246; stroke-width: 3; stroke-linecap: round; stroke-linejoin: round; }
  .sf { fill: white; stroke: #253246; stroke-width: 3; stroke-linecap: round; stroke-linejoin: round; }
  .a { fill: none; stroke: #2DA34A; stroke-width: 3.8; stroke-linecap: round; stroke-linejoin: round; }
  .af { fill: #2DA34A; stroke: #253246; stroke-width: 3; stroke-linecap: round; stroke-linejoin: round; }
  .ag { fill: #2DA34A; stroke: #253246; stroke-width: 1.2; stroke-linecap: round; stroke-linejoin: round; }
  .thin { stroke-width: 2.2; }
  .arrow { marker-end: url(#arrowhead); }
</style>
<defs>
  <marker id="arrowhead" markerUnits="userSpaceOnUse" viewBox="0 0 10 10" refX="8.9" refY="5" markerWidth="9" markerHeight="9" orient="auto">
    <path d="M0 0 L10 5 L0 10 Z" fill="#2DA34A" stroke="#253246" stroke-width="1.1" stroke-linejoin="round"/>
  </marker>
</defs>
<style>
  .label { font-family: Arial, Helvetica, sans-serif; font-size: 13px; fill: #1d2539; text-anchor: middle; }
</style>
<g transform="translate(43 10)"><path class="s" d="M14 50 L50 14"/>
<circle class="sf" cx="14" cy="50" r="3"/>
<circle class="sf" cx="50" cy="14" r="3"/></g>
<text class="label" x="75.0" y="91">Bar</text>
<g transform="translate(193 10)"><path class="s" d="M10 32 H54"/>
<path class="a arrow" d="M20 24 H12"/>
<rect class="sf" x="25" y="22" width="22" height="20" rx="2"/>
<circle class="af" cx="36" cy="32" r="4"/>
<path class="a arrow" d="M51 24 H59"/></g>
<text class="label" x="225.0" y="91">Rail (Line)</text>
<g transform="translate(343 10)"><path class="s" d="M12 42 C22 18, 43 18, 52 38"/>
<rect class="sf" x="27" y="24" width="18" height="14" rx="2" transform="rotate(14 36 31)"/>
<circle class="af" cx="36" cy="31" r="3.3"/>
<path class="a arrow" d="M46 14 C54 18, 58 24, 57 32"/></g>
<text class="label" x="375.0" y="91">Rail (Spline)</text>
<g transform="translate(493 10)"><rect class="sf" x="20" y="22" width="28" height="20" rx="1.5"/>
<circle class="af" cx="34" cy="32" r="4"/></g>
<text class="label" x="525.0" y="91">Add Slider</text>
<g transform="translate(643 10)"><path class="s" d="M23 45 L41 15"/>
<path class="s" d="M14 39 L34 9"/>
<circle class="sf" cx="18" cy="42" r="9"/>
<circle class="sf" cx="46" cy="17" r="9"/>
<circle class="af" cx="18" cy="42" r="3"/>
<circle class="af" cx="46" cy="17" r="3"/>
<path class="a arrow" d="M48 9 C54 11, 58 16, 58 22"/></g>
<text class="label" x="675.0" y="91">Belt</text>
<text class="label" x="675.0" y="107">Transmission</text>
<g transform="translate(43 128)"><path class="s" d="M16 18 H48"/>
<path class="s" d="M16 46 H48"/>
<path class="s thin" d="M17 18 l4 4 l4 -4 l4 4 l4 -4 l4 4 l4 -4 l4 4"/>
<path class="s thin" d="M17 46 l4 -4 l4 4 l4 -4 l4 4 l4 -4 l4 4 l4 -4"/>
<circle class="sf" cx="32" cy="32" r="11"/>
<circle class="af" cx="32" cy="32" r="3"/>
<path class="s thin" d="M32 21 V43 M21 32 H43 M24.2 24.2 L39.8 39.8 M39.8 24.2 L24.2 39.8"/></g>
<text class="label" x="75.0" y="209">Double</text>
<text class="label" x="75.0" y="225">Rack-and-Pinion</text>
<g transform="translate(193 128)"><path class="sf" d="M 25.00 23.00 L 28.09 27.49 L 33.23 25.67 L 33.09 31.12 L 38.31 32.67 L 35.00 37.00 L 38.31 41.33 L 33.09 42.88 L 33.23 48.33 L 28.09 46.51 L 25.00 51.00 L 21.91 46.51 L 16.77 48.33 L 16.91 42.88 L 11.69 41.33 L 15.00 37.00 L 11.69 32.67 L 16.91 31.12 L 16.77 25.67 L 21.91 27.49 Z"/>
<path class="sf" d="M 43.56 12.10 L 45.44 16.78 L 50.25 15.29 L 49.03 20.18 L 53.80 21.80 L 49.93 25.04 L 52.84 29.16 L 47.81 29.50 L 47.74 34.54 L 43.46 31.86 L 40.44 35.90 L 38.56 31.22 L 33.75 32.71 L 34.97 27.82 L 30.20 26.20 L 34.07 22.96 L 31.16 18.84 L 36.19 18.50 L 36.26 13.46 L 40.54 16.14 Z"/>
<circle class="af" cx="25" cy="37" r="3.5"/>
<circle class="af" cx="42" cy="24" r="3"/></g>
<text class="label" x="225.0" y="209">Gear Pair</text>
<g transform="translate(343 128)"><path class="sf" d="M 32.00 9.00 L 34.85 13.37 L 39.50 11.01 L 39.78 16.22 L 44.99 16.50 L 42.63 21.15 L 47.00 24.00 L 42.63 26.85 L 44.99 31.50 L 39.78 31.78 L 39.50 36.99 L 34.85 34.63 L 32.00 39.00 L 29.15 34.63 L 24.50 36.99 L 24.22 31.78 L 19.01 31.50 L 21.37 26.85 L 17.00 24.00 L 21.37 21.15 L 19.01 16.50 L 24.22 16.22 L 24.50 11.01 L 29.15 13.37 Z"/>
<circle class="af" cx="32" cy="24" r="3.5"/>
<path class="s" d="M12 48 H52"/>
<path class="s thin" d="M14 48 l4 -6 l4 6 l4 -6 l4 6 l4 -6 l4 6 l4 -6 l4 6 l4 -6 l4 6"/></g>
<text class="label" x="375.0" y="209">Rack-and-Pinion</text>
<g transform="translate(493 128)"><rect class="sf" x="22" y="18" width="20" height="24" rx="3"/>
<circle class="af" cx="32" cy="30" r="4"/>
<path class="s" d="M14 50 H50"/>
<path class="s thin" d="M18 50 l-4 6 M28 50 l-4 6 M38 50 l-4 6 M48 50 l-4 6"/></g>
<text class="label" x="525.0" y="209">Floating Bearing</text>
<g transform="translate(643 128)"><path class="sf" d="M32 12 L15 48 H49 Z"/>
<circle class="af" cx="32" cy="30" r="4"/>
<path class="s" d="M12 52 H52"/></g>
<text class="label" x="675.0" y="209">Fixed Bearing</text>
<g transform="translate(43 246)"><circle class="sf" cx="24" cy="42" r="6"/>
<path class="s" d="M24 42 L42 18"/>
<circle class="sf" cx="42" cy="18" r="5"/>
<path class="s" d="M24 42 L52 40"/>
<path class="a arrow" d="M43 12 C52 17, 55 25, 52 34"/></g>
<text class="label" x="75.0" y="327">Fixed Angle</text>
<g transform="translate(193 246)"><rect class="sf" x="24" y="10" width="20" height="14" rx="2"/>
<rect class="sf" x="20" y="40" width="20" height="14" rx="2"/>
<path class="s" d="M10 17 H24 M44 17 H54"/>
<path class="s" d="M10 47 H20 M40 47 H54"/>
<path class="s" d="M34 24 L30 40"/>
<circle class="af" cx="34" cy="17" r="2.8"/>
<circle class="af" cx="30" cy="47" r="2.8"/>
<path class="a arrow" d="M55 17 H61"/>
<path class="a arrow" d="M9 47 H3"/></g>
<text class="label" x="225.0" y="327">Travel Connection</text>
<g transform="translate(343 246)"><path class="sf" d="M16 8 H42 L54 20 V56 H16 Z"/>
<path class="s thin" d="M42 8 V20 H54"/>
<path class="s" d="M22 42 C29 23, 42 24, 48 37"/>
<rect class="sf" x="29" y="28" width="15" height="10" rx="1.5" transform="rotate(15 36.5 33)"/>
<circle class="af" cx="36" cy="33" r="2.3"/></g>
<text class="label" x="375.0" y="327">Import Rail</text>
<text class="label" x="375.0" y="343">(Spline)</text>
<g transform="translate(493 246)"><circle class="a" cx="32" cy="32" r="14"/>
<path class="ag" d="M45 27 L43.5 18.5 L51.5 22.2 Z"/>
<path class="s" d="M16 50 L50 16"/></g>
<text class="label" x="525.0" y="327">Absolute</text>
<text class="label" x="525.0" y="343">Rotary Drive</text>
<g transform="translate(643 246)"><circle class="a" cx="28" cy="32" r="11"/>
<path class="ag" d="M38 28 L38 20.5 L45 25 Z"/>
<circle class="af" cx="28" cy="32" r="3"/>
<path class="s" d="M39 32 H55"/>
<path class="s" d="M9 32 H17"/></g>
<text class="label" x="675.0" y="327">Relative</text>
<text class="label" x="675.0" y="343">Rotary Drive</text>
<g transform="translate(43 364)"><circle class="sf" cx="32" cy="32" r="5"/>
<path class="a arrow" d="M25 13 C33 8, 44 11, 49 19"/>
<path class="a arrow" d="M51 42 C45 52, 33 55, 23 50"/>
<path class="a arrow" d="M12 31 C11 22, 17 14, 25 12"/>
<path class="s" d="M32 32 L20 15 M32 32 L48 46"/></g>
<text class="label" x="75.0" y="445">Free Rotary</text>
<text class="label" x="75.0" y="461">Drive</text>
<g transform="translate(193 364)"><path class="a arrow" d="M16 44 L50 18"/>
<path class="s" d="M12 50 L22 42"/></g>
<text class="label" x="225.0" y="445">Absolute</text>
<text class="label" x="225.0" y="461">Linear Drive</text>
<g transform="translate(343 364)"><path class="s" d="M10 42 H54"/>
<rect class="sf" x="32" y="32" width="18" height="15" rx="2"/>
<circle class="af" cx="41" cy="39.5" r="3"/>
<path class="a arrow" d="M12 18 H51"/></g>
<text class="label" x="375.0" y="445">Slider Drive</text>
</svg>
