<svg xmlns="http://www.w3.org/2000/svg" width="1800" height="720" viewBox="0 0 1800 720" role="img" aria-labelledby="title desc">
  <title id="title">QUINO logo option 2 horizontal</title>
  <desc id="desc">Minimal linkage Q icon with QUINO wordmark.</desc>
  <rect width="1800" height="720" fill="#FFFFFF"/>
  <g transform="translate(80,80) scale(0.546875)">
    
  <title id="title">QUINO logo option 2</title>
  <desc id="desc">Minimal Q made from a clean four-bar linkage and revolute joints.</desc>
  <rect width="1024" height="1024" rx="225" fill="#F7FAFC"/>

  <g opacity="0.62">
    <circle cx="512" cy="512" r="320" fill="none" stroke="#E6EEF5" stroke-width="14"/>
    <line x1="236" y1="512" x2="788" y2="512" stroke="#E6EEF5" stroke-width="5"/>
    <line x1="512" y1="236" x2="512" y2="788" stroke="#E6EEF5" stroke-width="5"/>
  </g>
  <path d="M 708 304
           A 278 278 0 1 0 721 704"
        fill="none" stroke="#102033" stroke-width="82" stroke-linecap="round"/>
  <line x1="660" y1="650" x2="830" y2="820" stroke="#102033" stroke-width="76" stroke-linecap="round"/>
  <line x1="340" y1="392" x2="604" y2="318" stroke="#1BB3A6" stroke-width="32" stroke-linecap="round"/>
  <line x1="604" y1="318" x2="714" y2="566" stroke="#2F6FED" stroke-width="32" stroke-linecap="round"/>
  <line x1="714" y1="566" x2="448" y2="688" stroke="#1BB3A6" stroke-width="32" stroke-linecap="round"/>
  <g>
    <circle cx="340" cy="392" r="44" fill="#FFFFFF" stroke="#1BB3A6" stroke-width="18"/>
    <circle cx="604" cy="318" r="44" fill="#FFFFFF" stroke="#2F6FED" stroke-width="18"/>
    <circle cx="714" cy="566" r="44" fill="#FFFFFF" stroke="#2F6FED" stroke-width="18"/>
    <circle cx="448" cy="688" r="44" fill="#FFFFFF" stroke="#1BB3A6" stroke-width="18"/>
    <circle cx="660" cy="650" r="30" fill="#102033"/>
    <circle cx="830" cy="820" r="24" fill="#102033"/>
  </g>

  </g>
  <text x="720" y="380" font-family="Inter, Segoe UI, Arial, sans-serif" font-size="188" font-weight="850" letter-spacing="8" fill="#102033">QUINO</text>
  <text x="730" y="480" font-family="Inter, Segoe UI, Arial, sans-serif" font-size="44" font-weight="500" letter-spacing="2" fill="#7C8A99">KINEMATIC MODELING TOOLKIT</text>
</svg>